M48
; DRILL file {KiCad 8.0.6} date 2025-09-26T14:47:02-0400
; FORMAT={-:-/ absolute / inch / decimal}
; #@! TF.CreationDate,2025-09-26T14:47:02-04:00
; #@! TF.GenerationSoftware,Kicad,Pcbnew,8.0.6
; #@! TF.FileFunction,NonPlated,1,2,NPTH
FMAT,2
INCH
; #@! TA.AperFunction,NonPlated,NPTH,ComponentDrill
T1C0.0669
; #@! TA.AperFunction,NonPlated,NPTH,ComponentDrill
T2C0.1063
; #@! TA.AperFunction,NonPlated,NPTH,ComponentDrill
T3C0.1575
%
G90
G05
T1
X4.2307Y-2.8815
X4.2307Y-4.8909
X4.6307Y-2.8815
X4.6307Y-4.8909
X5.4452Y-4.8909
X5.5004Y-2.8815
X5.8452Y-4.8909
X5.9004Y-2.8815
X6.7701Y-2.8815
X6.9701Y-4.3138
X6.9701Y-4.7138
X6.9701Y-5.0638
X6.9701Y-5.4638
X7.1701Y-2.8815
T2
X4.1295Y-2.3563
X4.1295Y-5.7933
X7.1728Y-2.3563
X7.1728Y-5.7933
T3
X4.4307Y-2.8815
X4.4307Y-4.8909
X5.6452Y-4.8909
X5.7004Y-2.8815
X6.9701Y-2.8815
X6.9701Y-4.5138
X6.9701Y-5.2638
M30
