%TF.GenerationSoftware,KiCad,Pcbnew,8.0.6*%
%TF.CreationDate,2025-09-26T14:27:00-04:00*%
%TF.ProjectId,SmplASketch,536d706c-4153-46b6-9574-63682e6b6963,rev?*%
%TF.SameCoordinates,Original*%
%TF.FileFunction,Copper,L1,Top*%
%TF.FilePolarity,Positive*%
%FSLAX46Y46*%
G04 Gerber Fmt 4.6, Leading zero omitted, Abs format (unit mm)*
G04 Created by KiCad (PCBNEW 8.0.6) date 2025-09-26 14:27:00*
%MOMM*%
%LPD*%
G01*
G04 APERTURE LIST*
%TA.AperFunction,ComponentPad*%
%ADD10C,2.200000*%
%TD*%
%TA.AperFunction,ComponentPad*%
%ADD11R,1.700000X1.700000*%
%TD*%
%TA.AperFunction,ComponentPad*%
%ADD12O,1.700000X1.700000*%
%TD*%
%TA.AperFunction,ComponentPad*%
%ADD13R,1.600000X1.600000*%
%TD*%
%TA.AperFunction,ComponentPad*%
%ADD14C,1.600000*%
%TD*%
%TA.AperFunction,Conductor*%
%ADD15C,1.000000*%
%TD*%
G04 APERTURE END LIST*
D10*
%TO.P,SW6,1,1*%
%TO.N,GND*%
X171960000Y-112110000D03*
%TO.P,SW6,2,2*%
%TO.N,Up Button*%
X174500000Y-118460000D03*
%TD*%
%TO.P,SW3,1,1*%
%TO.N,GND*%
X110000000Y-78270000D03*
%TO.P,SW3,2,2*%
%TO.N,Reset Button*%
X116350000Y-75730000D03*
%TD*%
D11*
%TO.P,J1,1,Pin_1*%
%TO.N,LED*%
X176515000Y-97980000D03*
D12*
%TO.P,J1,2,Pin_2*%
%TO.N,GND*%
X176515000Y-95440000D03*
%TD*%
D10*
%TO.P,SW4,1,1*%
%TO.N,GND*%
X115080000Y-119150000D03*
%TO.P,SW4,2,2*%
%TO.N,Wav Button*%
X108730000Y-121690000D03*
%TD*%
%TO.P,SW1,1,1*%
%TO.N,GND*%
X174500000Y-78270000D03*
%TO.P,SW1,2,2*%
%TO.N,Smpl Button*%
X180850000Y-75730000D03*
%TD*%
%TO.P,SW2,1,1*%
%TO.N,GND*%
X142250000Y-78270000D03*
%TO.P,SW2,2,2*%
%TO.N,Snap Button*%
X148600000Y-75730000D03*
%TD*%
%TO.P,SW7,1,1*%
%TO.N,GND*%
X171960000Y-131160000D03*
%TO.P,SW7,2,2*%
%TO.N,Down Button*%
X174500000Y-137510000D03*
%TD*%
%TO.P,SW5,1,1*%
%TO.N,GND*%
X145927500Y-119150000D03*
%TO.P,SW5,2,2*%
%TO.N,Env Button*%
X139577500Y-121690000D03*
%TD*%
D13*
%TO.P,U1,1,GND*%
%TO.N,GND*%
X101330000Y-93610000D03*
D14*
%TO.P,U1,2,0_RX1_CRX2_CS1*%
%TO.N,unconnected-(U1-0_RX1_CRX2_CS1-Pad2)*%
X103870000Y-93610000D03*
%TO.P,U1,3,1_TX1_CTX2_MISO1*%
%TO.N,unconnected-(U1-1_TX1_CTX2_MISO1-Pad3)*%
X106410000Y-93610000D03*
%TO.P,U1,4,2_OUT2*%
%TO.N,unconnected-(U1-2_OUT2-Pad4)*%
X108950000Y-93610000D03*
%TO.P,U1,5,3_LRCLK2*%
%TO.N,unconnected-(U1-3_LRCLK2-Pad5)*%
X111490000Y-93610000D03*
%TO.P,U1,6,4_BCLK2*%
%TO.N,unconnected-(U1-4_BCLK2-Pad6)*%
X114030000Y-93610000D03*
%TO.P,U1,7,5_IN2*%
%TO.N,unconnected-(U1-5_IN2-Pad7)*%
X116570000Y-93610000D03*
%TO.P,U1,8,6_OUT1D*%
%TO.N,unconnected-(U1-6_OUT1D-Pad8)*%
X119110000Y-93610000D03*
%TO.P,U1,9,7_RX2_OUT1A*%
%TO.N,unconnected-(U1-7_RX2_OUT1A-Pad9)*%
X121650000Y-93610000D03*
%TO.P,U1,10,8_TX2_IN1*%
%TO.N,unconnected-(U1-8_TX2_IN1-Pad10)*%
X124190000Y-93610000D03*
%TO.P,U1,11,9_OUT1C*%
%TO.N,unconnected-(U1-9_OUT1C-Pad11)*%
X126730000Y-93610000D03*
%TO.P,U1,12,10_CS_MQSR*%
%TO.N,unconnected-(U1-10_CS_MQSR-Pad12)*%
X129270000Y-93610000D03*
%TO.P,U1,13,11_MOSI_CTX1*%
%TO.N,unconnected-(U1-11_MOSI_CTX1-Pad13)*%
X131810000Y-93610000D03*
%TO.P,U1,14,12_MISO_MQSL*%
%TO.N,unconnected-(U1-12_MISO_MQSL-Pad14)*%
X134350000Y-93610000D03*
%TO.P,U1,15,3V3*%
%TO.N,unconnected-(U1-3V3-Pad15)*%
X136890000Y-93610000D03*
%TO.P,U1,16,24_A10_TX6_SCL2*%
%TO.N,unconnected-(U1-24_A10_TX6_SCL2-Pad16)*%
X139430000Y-93610000D03*
%TO.P,U1,17,25_A11_RX6_SDA2*%
%TO.N,unconnected-(U1-25_A11_RX6_SDA2-Pad17)*%
X141970000Y-93610000D03*
%TO.P,U1,18,26_A12_MOSI1*%
%TO.N,unconnected-(U1-26_A12_MOSI1-Pad18)*%
X144510000Y-93610000D03*
%TO.P,U1,19,27_A13_SCK1*%
%TO.N,unconnected-(U1-27_A13_SCK1-Pad19)*%
X147050000Y-93610000D03*
%TO.P,U1,20,28_RX7*%
%TO.N,unconnected-(U1-28_RX7-Pad20)*%
X149590000Y-93610000D03*
%TO.P,U1,21,29_TX7*%
%TO.N,unconnected-(U1-29_TX7-Pad21)*%
X152130000Y-93610000D03*
%TO.P,U1,22,30_CRX3*%
%TO.N,Reset Button*%
X154670000Y-93610000D03*
%TO.P,U1,23,31_CTX3*%
%TO.N,Snap Button*%
X157210000Y-93610000D03*
%TO.P,U1,24,32_OUT1B*%
%TO.N,Smpl Button*%
X159750000Y-93610000D03*
%TO.P,U1,25,33_MCLK2*%
%TO.N,Up Button*%
X159750000Y-108850000D03*
%TO.P,U1,26,34_RX8*%
%TO.N,Down Button*%
X157210000Y-108850000D03*
%TO.P,U1,27,35_TX8*%
%TO.N,Env Button*%
X154670000Y-108850000D03*
%TO.P,U1,28,36_CS*%
%TO.N,Wav Button*%
X152130000Y-108850000D03*
%TO.P,U1,29,37_CS*%
%TO.N,unconnected-(U1-37_CS-Pad29)*%
X149590000Y-108850000D03*
%TO.P,U1,30,38_CS1_IN1*%
%TO.N,unconnected-(U1-38_CS1_IN1-Pad30)*%
X147050000Y-108850000D03*
%TO.P,U1,31,39_MISO1_OUT1A*%
%TO.N,unconnected-(U1-39_MISO1_OUT1A-Pad31)*%
X144510000Y-108850000D03*
%TO.P,U1,32,40_A16*%
%TO.N,LED*%
X141970000Y-108850000D03*
%TO.P,U1,33,41_A17*%
%TO.N,unconnected-(U1-41_A17-Pad33)*%
X139430000Y-108850000D03*
%TO.P,U1,34,GND*%
%TO.N,GND*%
X136890000Y-108850000D03*
%TO.P,U1,35,13_SCK_LED*%
%TO.N,unconnected-(U1-13_SCK_LED-Pad35)*%
X134350000Y-108850000D03*
%TO.P,U1,36,14_A0_TX3_SPDIF_OUT*%
%TO.N,unconnected-(U1-14_A0_TX3_SPDIF_OUT-Pad36)*%
X131810000Y-108850000D03*
%TO.P,U1,37,15_A1_RX3_SPDIF_IN*%
%TO.N,unconnected-(U1-15_A1_RX3_SPDIF_IN-Pad37)*%
X129270000Y-108850000D03*
%TO.P,U1,38,16_A2_RX4_SCL1*%
%TO.N,unconnected-(U1-16_A2_RX4_SCL1-Pad38)*%
X126730000Y-108850000D03*
%TO.P,U1,39,17_A3_TX4_SDA1*%
%TO.N,unconnected-(U1-17_A3_TX4_SDA1-Pad39)*%
X124190000Y-108850000D03*
%TO.P,U1,40,18_A4_SDA*%
%TO.N,unconnected-(U1-18_A4_SDA-Pad40)*%
X121650000Y-108850000D03*
%TO.P,U1,41,19_A5_SCL*%
%TO.N,unconnected-(U1-19_A5_SCL-Pad41)*%
X119110000Y-108850000D03*
%TO.P,U1,42,20_A6_TX5_LRCLK1*%
%TO.N,unconnected-(U1-20_A6_TX5_LRCLK1-Pad42)*%
X116570000Y-108850000D03*
%TO.P,U1,43,21_A7_RX5_BCLK1*%
%TO.N,unconnected-(U1-21_A7_RX5_BCLK1-Pad43)*%
X114030000Y-108850000D03*
%TO.P,U1,44,22_A8_CTX1*%
%TO.N,unconnected-(U1-22_A8_CTX1-Pad44)*%
X111490000Y-108850000D03*
%TO.P,U1,45,23_A9_CRX1_MCLK1*%
%TO.N,unconnected-(U1-23_A9_CRX1_MCLK1-Pad45)*%
X108950000Y-108850000D03*
%TO.P,U1,46,3V3*%
%TO.N,+3.3V*%
X106410000Y-108850000D03*
%TO.P,U1,47,GND*%
%TO.N,unconnected-(U1-GND-Pad47)*%
X103870000Y-108850000D03*
%TO.P,U1,48,VIN*%
%TO.N,unconnected-(U1-VIN-Pad48)*%
X101330000Y-108850000D03*
%TD*%
D15*
%TO.N,GND*%
X115040000Y-115230000D02*
X115080000Y-115270000D01*
X165040000Y-113730000D02*
X165040000Y-127730000D01*
X166660000Y-112110000D02*
X166660000Y-97110000D01*
X110040000Y-84730000D02*
X142540000Y-84730000D01*
X142250000Y-84440000D02*
X142540000Y-84730000D01*
X133141370Y-113730000D02*
X116540000Y-113730000D01*
X172040000Y-84730000D02*
X174540000Y-82230000D01*
X110000000Y-78270000D02*
X110000000Y-84690000D01*
X103540000Y-84730000D02*
X110040000Y-84730000D01*
X145927500Y-113842500D02*
X146040000Y-113730000D01*
X166660000Y-112110000D02*
X171960000Y-112110000D01*
X165040000Y-127730000D02*
X168470000Y-131160000D01*
X145927500Y-119150000D02*
X145927500Y-113842500D01*
X101330000Y-93610000D02*
X101330000Y-86940000D01*
X165040000Y-113730000D02*
X166660000Y-112110000D01*
X166660000Y-97110000D02*
X168330000Y-95440000D01*
X168470000Y-131160000D02*
X171960000Y-131160000D01*
X136890000Y-108850000D02*
X136890000Y-109981370D01*
X115080000Y-115270000D02*
X115080000Y-119150000D01*
X168330000Y-95440000D02*
X176515000Y-95440000D01*
X142540000Y-84730000D02*
X172040000Y-84730000D01*
X110000000Y-84690000D02*
X110040000Y-84730000D01*
X133141370Y-113730000D02*
X146040000Y-113730000D01*
X142250000Y-78270000D02*
X142250000Y-84440000D01*
X146040000Y-113730000D02*
X165040000Y-113730000D01*
X101330000Y-86940000D02*
X103540000Y-84730000D01*
X174540000Y-82230000D02*
X174540000Y-81230000D01*
X116540000Y-113730000D02*
X115040000Y-115230000D01*
X136890000Y-109981370D02*
X133141370Y-113730000D01*
X174540000Y-81230000D02*
X174500000Y-81190000D01*
X174500000Y-81190000D02*
X174500000Y-78270000D01*
%TD*%
M02*
