%TF.GenerationSoftware,KiCad,Pcbnew,8.0.6*%
%TF.CreationDate,2025-09-26T14:27:00-04:00*%
%TF.ProjectId,SmplASketch,536d706c-4153-46b6-9574-63682e6b6963,rev?*%
%TF.SameCoordinates,Original*%
%TF.FileFunction,Soldermask,Bot*%
%TF.FilePolarity,Negative*%
%FSLAX46Y46*%
G04 Gerber Fmt 4.6, Leading zero omitted, Abs format (unit mm)*
G04 Created by KiCad (PCBNEW 8.0.6) date 2025-09-26 14:27:00*
%MOMM*%
%LPD*%
G01*
G04 APERTURE LIST*
%ADD10C,1.700000*%
%ADD11C,4.000000*%
%ADD12C,2.200000*%
%ADD13C,2.700000*%
%ADD14R,1.700000X1.700000*%
%ADD15O,1.700000X1.700000*%
%ADD16R,1.600000X1.600000*%
%ADD17C,1.600000*%
G04 APERTURE END LIST*
D10*
%TO.C,SW6*%
X177040000Y-119730000D03*
D11*
X177040000Y-114650000D03*
D10*
X177040000Y-109570000D03*
D12*
X171960000Y-112110000D03*
X174500000Y-118460000D03*
%TD*%
D13*
%TO.C,H3*%
X182190000Y-147150000D03*
%TD*%
D10*
%TO.C,SW3*%
X117620000Y-73190000D03*
D11*
X112540000Y-73190000D03*
D10*
X107460000Y-73190000D03*
D12*
X110000000Y-78270000D03*
X116350000Y-75730000D03*
%TD*%
D13*
%TO.C,H1*%
X104890000Y-59850000D03*
%TD*%
D14*
%TO.C,J1*%
X176515000Y-97980000D03*
D15*
X176515000Y-95440000D03*
%TD*%
D13*
%TO.C,H4*%
X104890000Y-147150000D03*
%TD*%
D10*
%TO.C,SW4*%
X107460000Y-124230000D03*
D11*
X112540000Y-124230000D03*
D10*
X117620000Y-124230000D03*
D12*
X115080000Y-119150000D03*
X108730000Y-121690000D03*
%TD*%
D10*
%TO.C,SW1*%
X182120000Y-73190000D03*
D11*
X177040000Y-73190000D03*
D10*
X171960000Y-73190000D03*
D12*
X174500000Y-78270000D03*
X180850000Y-75730000D03*
%TD*%
D10*
%TO.C,SW2*%
X149870000Y-73190000D03*
D11*
X144790000Y-73190000D03*
D10*
X139710000Y-73190000D03*
D12*
X142250000Y-78270000D03*
X148600000Y-75730000D03*
%TD*%
D10*
%TO.C,SW7*%
X177040000Y-138780000D03*
D11*
X177040000Y-133700000D03*
D10*
X177040000Y-128620000D03*
D12*
X171960000Y-131160000D03*
X174500000Y-137510000D03*
%TD*%
D13*
%TO.C,H2*%
X182190000Y-59850000D03*
%TD*%
D10*
%TO.C,SW5*%
X138307500Y-124230000D03*
D11*
X143387500Y-124230000D03*
D10*
X148467500Y-124230000D03*
D12*
X145927500Y-119150000D03*
X139577500Y-121690000D03*
%TD*%
D16*
%TO.C,U1*%
X101330000Y-93610000D03*
D17*
X103870000Y-93610000D03*
X106410000Y-93610000D03*
X108950000Y-93610000D03*
X111490000Y-93610000D03*
X114030000Y-93610000D03*
X116570000Y-93610000D03*
X119110000Y-93610000D03*
X121650000Y-93610000D03*
X124190000Y-93610000D03*
X126730000Y-93610000D03*
X129270000Y-93610000D03*
X131810000Y-93610000D03*
X134350000Y-93610000D03*
X136890000Y-93610000D03*
X139430000Y-93610000D03*
X141970000Y-93610000D03*
X144510000Y-93610000D03*
X147050000Y-93610000D03*
X149590000Y-93610000D03*
X152130000Y-93610000D03*
X154670000Y-93610000D03*
X157210000Y-93610000D03*
X159750000Y-93610000D03*
X159750000Y-108850000D03*
X157210000Y-108850000D03*
X154670000Y-108850000D03*
X152130000Y-108850000D03*
X149590000Y-108850000D03*
X147050000Y-108850000D03*
X144510000Y-108850000D03*
X141970000Y-108850000D03*
X139430000Y-108850000D03*
X136890000Y-108850000D03*
X134350000Y-108850000D03*
X131810000Y-108850000D03*
X129270000Y-108850000D03*
X126730000Y-108850000D03*
X124190000Y-108850000D03*
X121650000Y-108850000D03*
X119110000Y-108850000D03*
X116570000Y-108850000D03*
X114030000Y-108850000D03*
X111490000Y-108850000D03*
X108950000Y-108850000D03*
X106410000Y-108850000D03*
X103870000Y-108850000D03*
X101330000Y-108850000D03*
%TD*%
M02*
