M48
; DRILL file {KiCad 8.0.6} date 2025-09-26T14:47:02-0400
; FORMAT={-:-/ absolute / inch / decimal}
; #@! TF.CreationDate,2025-09-26T14:47:02-04:00
; #@! TF.GenerationSoftware,Kicad,Pcbnew,8.0.6
; #@! TF.FileFunction,Plated,1,2,PTH
FMAT,2
INCH
; #@! TA.AperFunction,Plated,PTH,ComponentDrill
T1C0.0394
; #@! TA.AperFunction,Plated,PTH,ComponentDrill
T2C0.0433
; #@! TA.AperFunction,Plated,PTH,ComponentDrill
T3C0.0591
%
G90
G05
T1
X6.9494Y-3.7575
X6.9494Y-3.8575
T2
X3.9894Y-3.6854
X3.9894Y-4.2854
X4.0894Y-3.6854
X4.0894Y-4.2854
X4.1894Y-3.6854
X4.1894Y-4.2854
X4.2894Y-3.6854
X4.2894Y-4.2854
X4.3894Y-3.6854
X4.3894Y-4.2854
X4.4894Y-3.6854
X4.4894Y-4.2854
X4.5894Y-3.6854
X4.5894Y-4.2854
X4.6894Y-3.6854
X4.6894Y-4.2854
X4.7894Y-3.6854
X4.7894Y-4.2854
X4.8894Y-3.6854
X4.8894Y-4.2854
X4.9894Y-3.6854
X4.9894Y-4.2854
X5.0894Y-3.6854
X5.0894Y-4.2854
X5.1894Y-3.6854
X5.1894Y-4.2854
X5.2894Y-3.6854
X5.2894Y-4.2854
X5.3894Y-3.6854
X5.3894Y-4.2854
X5.4894Y-3.6854
X5.4894Y-4.2854
X5.5894Y-3.6854
X5.5894Y-4.2854
X5.6894Y-3.6854
X5.6894Y-4.2854
X5.7894Y-3.6854
X5.7894Y-4.2854
X5.8894Y-3.6854
X5.8894Y-4.2854
X5.9894Y-3.6854
X5.9894Y-4.2854
X6.0894Y-3.6854
X6.0894Y-4.2854
X6.1894Y-3.6854
X6.1894Y-4.2854
X6.2894Y-3.6854
X6.2894Y-4.2854
T3
X4.2807Y-4.7909
X4.3307Y-3.0815
X4.5307Y-4.6909
X4.5807Y-2.9815
X5.4952Y-4.7909
X5.6004Y-3.0815
X5.7452Y-4.6909
X5.8504Y-2.9815
X6.7701Y-4.4138
X6.7701Y-5.1638
X6.8701Y-3.0815
X6.8701Y-4.6638
X6.8701Y-5.4138
X7.1201Y-2.9815
M30
